<?xml version="1.0" standalone="no"?>
<!DOCTYPE svg PUBLIC "-//W3C//DTD SVG 20010904//EN"
 "http://www.w3.org/TR/2001/REC-SVG-20010904/DTD/svg10.dtd">
<svg version="1.0" xmlns="http://www.w3.org/2000/svg"
 width="755.000000pt" height="755.000000pt" viewBox="0 0 755.000000 755.000000"
 preserveAspectRatio="xMidYMid meet">
<metadata>
Created by potrace 1.14, written by Peter Selinger 2001-2017
</metadata>
<g transform="translate(0.000000,755.000000) scale(0.100000,-0.100000)"
fill="#000000" stroke="none">
<path d="M4391 3206 c-89 -49 -53 -186 49 -186 33 0 48 6 71 29 80 81 -20 212
-120 157z"/>
<path d="M4835 2871 l-160 -156 77 -3 76 -3 4 -262 c4 -285 9 -310 66 -370 81
-85 246 -106 378 -47 l44 19 0 81 c0 45 -3 80 -7 78 -102 -51 -192 -69 -241
-49 -15 7 -37 26 -48 44 -17 29 -19 52 -19 267 l0 235 133 3 132 3 0 74 0 74
-132 3 -133 3 -2 78 c-1 44 -3 80 -5 82 -2 2 -75 -67 -163 -154z"/>
<path d="M3925 2861 c-38 -17 -120 -96 -157 -151 -17 -24 -17 -23 -17 63 l-1
87 -90 0 -90 0 0 -425 0 -425 90 0 90 0 0 260 c0 281 2 297 56 368 69 89 177
97 270 19 l32 -27 41 69 c22 38 41 74 41 80 0 14 -58 56 -110 80 -56 25 -103
26 -155 2z"/>
<path d="M5720 2866 c-166 -48 -268 -184 -286 -379 -17 -195 79 -383 233 -455
49 -22 75 -27 164 -30 128 -5 196 8 289 54 l70 35 0 85 0 84 -63 -35 c-165
-91 -358 -86 -448 12 -35 37 -58 83 -68 138 l-8 45 298 0 299 0 0 53 c0 161
-90 316 -217 374 -66 31 -193 40 -263 19z m195 -155 c51 -24 81 -56 100 -110
30 -86 42 -81 -196 -81 l-211 0 7 33 c10 46 50 112 83 135 63 44 151 54 217
23z"/>
<path d="M2143 2843 c8 -30 359 -827 370 -840 5 -7 20 -13 32 -13 20 0 36 32
146 295 106 253 125 292 134 274 5 -13 62 -144 125 -293 113 -265 116 -271
144 -271 28 0 32 7 131 235 56 129 140 324 187 433 l86 197 -92 0 -93 0 -108
-250 c-59 -138 -110 -248 -114 -245 -3 3 -51 115 -106 248 l-100 242 -66 3
-66 3 -103 -246 c-57 -136 -107 -248 -111 -250 -3 -3 -34 62 -69 143 -34 81
-83 193 -107 250 l-45 102 -90 0 c-81 0 -90 -2 -85 -17z"/>
<path d="M4350 2435 l0 -425 90 0 90 0 0 425 0 425 -90 0 -90 0 0 -425z"/>
<path d="M6404 2211 c-61 -26 -85 -122 -44 -174 27 -34 79 -48 125 -36 112 31
96 202 -20 214 -22 3 -50 1 -61 -4z"/>
</g>
</svg>
